<svg width="28" height="28" viewBox="0 0 28 28" fill="none" xmlns="http://www.w3.org/2000/svg">
<path fill-rule="evenodd" clip-rule="evenodd" d="M23.5525 7.72693C25.6874 7.72693 27.418 5.9972 27.418 3.86347C27.418 1.72974 25.6874 0 23.5525 0C21.4176 0 19.687 1.72974 19.687 3.86347C19.687 5.9972 21.4176 7.72693 23.5525 7.72693Z" fill="#6D758F"/>
<path fill-rule="evenodd" clip-rule="evenodd" d="M23.5525 17.8634C25.6874 17.8634 27.418 16.1337 27.418 14C27.418 11.8662 25.6874 10.1364 23.5525 10.1364C21.4176 10.1364 19.687 11.8662 19.687 14C19.687 16.1337 21.4176 17.8634 23.5525 17.8634Z" fill="#6D758F"/>
<path fill-rule="evenodd" clip-rule="evenodd" d="M23.5525 27.9998C25.6874 27.9998 27.418 26.2701 27.418 24.1364C27.418 22.0026 25.6874 20.2729 23.5525 20.2729C21.4176 20.2729 19.687 22.0026 19.687 24.1364C19.687 26.2701 21.4176 27.9998 23.5525 27.9998Z" fill="#6D758F"/>
<path fill-rule="evenodd" clip-rule="evenodd" d="M13.7091 17.8634C15.844 17.8634 17.5747 16.1337 17.5747 14C17.5747 11.8662 15.844 10.1364 13.7091 10.1364C11.5743 10.1364 9.84364 11.8662 9.84364 14C9.84364 16.1337 11.5743 17.8634 13.7091 17.8634Z" fill="#6D758F"/>
<path fill-rule="evenodd" clip-rule="evenodd" d="M13.7091 27.9998C15.844 27.9998 17.5747 26.2701 17.5747 24.1363C17.5747 22.0026 15.844 20.2728 13.7091 20.2728C11.5743 20.2728 9.84364 22.0026 9.84364 24.1363C9.84364 26.2701 11.5743 27.9998 13.7091 27.9998Z" fill="#6D758F"/>
<path fill-rule="evenodd" clip-rule="evenodd" d="M3.86571 27.9998C6.00058 27.9998 7.73122 26.2701 7.73122 24.1364C7.73122 22.0026 6.00058 20.2729 3.86571 20.2729C1.73085 20.2729 0.000198364 22.0026 0.000198364 24.1364C0.000198364 26.2701 1.73085 27.9998 3.86571 27.9998Z" fill="#6D758F"/>
</svg>
